<?xml version="1.0" encoding="UTF-8" standalone="no"?>
<svg
   width="82"
   height="95"
   fill="none"
   viewBox="0 0 82 95"
   version="1.1"
   id="svg2"
   sodipodi:docname="Group 1.svg"
   inkscape:version="1.3.2 (091e20e, 2023-11-25, custom)"
   xmlns:inkscape="http://www.inkscape.org/namespaces/inkscape"
   xmlns:sodipodi="http://sodipodi.sourceforge.net/DTD/sodipodi-0.dtd"
   xmlns="http://www.w3.org/2000/svg"
   xmlns:svg="http://www.w3.org/2000/svg">
  <defs
     id="defs2" />
  <sodipodi:namedview
     id="namedview2"
     pagecolor="#ffffff"
     bordercolor="#000000"
     borderopacity="0.25"
     inkscape:showpageshadow="2"
     inkscape:pageopacity="0.0"
     inkscape:pagecheckerboard="0"
     inkscape:deskcolor="#d1d1d1"
     inkscape:zoom="6.0243902"
     inkscape:cx="29.712551"
     inkscape:cy="48.38664"
     inkscape:window-width="1920"
     inkscape:window-height="1001"
     inkscape:window-x="-9"
     inkscape:window-y="-9"
     inkscape:window-maximized="1"
     inkscape:current-layer="svg2" />
  <path
     fill="#000"
     d="M42.176.001c-1.62-.044-1.839 1.172-3.456 1.27-1.617.096-1.981-1.085-3.584-.848-1.603.238-1.608 1.474-3.183 1.85-1.577.377-2.14-.723-3.677-.21-1.537.512-1.328 1.73-2.814 2.374-1.486.644-2.232-.341-3.657.43-1.424.772-1.007 1.935-2.359 2.828-1.352.893-2.257.051-3.526 1.058-1.27 1.007-.656 2.08-1.833 3.194-1.176 1.114-2.214.443-3.29 1.655-1.074 1.213-.283 2.163-1.249 3.464-.965 1.301-2.103.82-2.951 2.201-.849 1.38.095 2.179-.63 3.628-.724 1.45-1.93 1.173-2.525 2.68-.596 1.507.473 2.13.012 3.683-.462 1.553-1.697 1.49-2.022 3.077-.325 1.587.835 2.015.65 3.625C1.897 37.57.67 37.722.626 39.342c-.045 1.62 1.172 1.84 1.27 3.457.097 1.617-1.085 1.98-.848 3.584.238 1.602 1.474 1.607 1.85 3.183.377 1.576-.724 2.14-.211 3.676.512 1.538 1.73 1.328 2.375 2.814.644 1.487-.342 2.232.43 3.657.771 1.425 1.935 1.007 2.827 2.359.893 1.352.052 2.258 1.059 3.527 1.007 1.269 2.08.656 3.194 1.832 1.114 1.177.443 2.215 1.655 3.29 1.212 1.075 2.163.283 3.464 1.249 1.301.965.82 2.104 2.2 2.952 1.38.848 2.18-.095 3.629.629 1.45.725 1.173 1.93 2.68 2.525 1.507.596 2.13-.472 3.682-.011a2.73 2.73 0 0 1 1.181.702c.56.311 1.718 1.086 3.453 1.15 6.295.235 12.748.09 18.154.162 3.405-.323 6.99-.699 6.21 1.804-4.432.444-9.187-.082-13.64.046-3.016.212-6.205-.36-9.092.667-3.15 1.393-2.589 6.255.72 6.974 4.828.447 9.696.171 14.54.255 2.059.64 7.408-1.414 7.247 1.729-7.007.169-14.018.198-21.027.29-1.524-.56-2.952 1.54-1.405 2.585 3.809.219 7.634.142 11.449.176 3.924-.142 7.927.318 11.798-.36 3.428-1.155 2.838-6.518-.643-7.078-5.318-.432-10.672-.114-16.005-.23-1.598-.263-5.468-.025-5.52-1.656-.053-1.633 11.432-.144 17.144-.307 2.515-.095 6.039.468 7.19-2.479 1.041-2.295-1.1-5.3-3.132-5.334-2.032-.034-11.744.038-17.615-.09-3.816-.266-4.812-2.518-5.031-3.934-.012-2.973 1.14-6.56-1.363-8.924-2.747-1.443-5.914.995-8.894-.072-3.011-.075-6.323-2.962-4.182-6.069 1.361-2.069-4.404-2.22-.559-5.849-3.816-3.856 1.728-3.311 1.707-4.878-1.495-1.825-2.643-4.779.4-5.475 3.226-1.038 4.483-4.286 3.943-7.353-.155-3.035 2.035-5.443 3.752-7.746 1.71-2.003 3.943-3.69 6.505-4.48.337.363.594.793 1.222 1.01 1.04.359 1.395-.455 2.411.006 1.016.46.893 1.38 1.877 1.94.983.558 1.46-.16 2.406.493.944.654.685 1.523 1.583 2.266.899.743 1.482.142 2.328.968.846.827.456 1.618 1.242 2.521.786.904 1.46.438 2.18 1.412.721.975.213 1.664.863 2.701.65 1.037 1.39.722 1.965 1.814.574 1.092-.035 1.659.458 2.798s1.281.984 1.69 2.16c.41 1.178-.284 1.605.039 2.811.322 1.206 1.131 1.214 1.364 2.44.232 1.227-.523 1.502-.382 2.739.089.778.662 1.59-.152 2.968-.813 1.377-3.152 2.377-3.403 5.16-.795 4.648.016 5.441 1.295 7.557 1.269 1.723 2.148 2.955 2.418 4.524.64 1.131-.398 2.536 1.176 3.18 1.574.643 4.223.07 6.477-1.618 1.269-1.008.655-2.08 1.831-3.195 1.177-1.114 2.215-.442 3.29-1.654 1.075-1.212.284-2.163 1.25-3.464.965-1.302 2.103-.82 2.952-2.2.848-1.381-.096-2.18.629-3.63.724-1.448 1.93-1.173 2.525-2.68.595-1.506-.472-2.128-.01-3.681.462-1.553 1.697-1.491 2.021-3.079.325-1.587-.835-2.015-.65-3.624.186-1.61 1.412-1.763 1.456-3.382.045-1.62-1.172-1.84-1.269-3.457-.097-1.617 1.085-1.98.847-3.583-.238-1.603-1.474-1.608-1.85-3.184-.377-1.576.724-2.139.211-3.676-.512-1.537-1.73-1.327-2.374-2.814-.645-1.486.341-2.233-.43-3.657-.772-1.425-1.936-1.007-2.828-2.359-.893-1.352-.051-2.258-1.058-3.527-1.008-1.27-2.08-.655-3.195-1.832-1.114-1.176-.443-2.214-1.655-3.29-1.212-1.074-2.162-.284-3.463-1.25-1.302-.964-.821-2.103-2.202-2.951-1.38-.848-2.178.096-3.627-.629-1.45-.724-1.174-1.93-2.68-2.525-1.507-.596-2.13.472-3.683.01-1.553-.462-1.49-1.697-3.078-2.022-1.587-.325-2.015.835-3.624.65-1.61-.185-1.765-1.41-3.384-1.455Z"
     id="path1"
     style="fill:#ffffff" />
  <path
     fill="#000"
     d="M20.126 51.427s-7.727-.882-10.344-.76c-2.617.121-2.613 2.376-.11 2.376 1.927 0 10.345.285 10.345.285l2.069-.094-1.96-1.807Zm6.662-19.855c-.344.738-.226 1.649-.313 2.459-.095 2.453-.29 6.856-.106 7.364.185.508 1.762.656 2.862.862 1.1.206 2.263.503 3.407.526.865-.397 1.326-1.454 1.556-2.212.23-.758.981-5.593 2.177-5.382 1.195.21 5.272 1.378 7.438 1.575 1.466.04 1.35-.835 2.188-.565.839.27 2.038.801 3.423.826.793.014 2.983.23 3.63.26.647.031.554.05.808-.262C50.318 35.973 39.83 33.05 36.29 32c-3.167-.145-6.334-.306-9.502-.428Zm3.352 1.176c1.179.055 4.373.232 4.586.454.25.147-.28 2.301-.594 3.422-.365 1.566-.736 3.204-1.66 4.543-.899.553-2.154.19-3.033.086-1.39-.147-1.488-.871-1.683-2.16-.195-1.29-.217-1.393-.326-2.376-.109-.982-.116-1.28.715-1.307.832-.028.346-.737.174-1.44-.172-.704-1.52-.417-1.002-1.167.69-.162 1.644-.11 2.823-.055Zm.502.495c-1.07-.005-.4 1.278-.114 1.98.286.702 1.042 2.324.381 2.717-.66.394-1.422-1.485-1.888-1.211-.466.274.093.97.325 1.378.28.492.366.864.493 1.316.205.678.098 1.234 1.164 1.3 1.066.068 1.375-.802 1.526-1.672.381-1.629.665-2.816.878-3.94.214-1.125.335-1.386.072-1.547-.263-.161-1.881-.342-2.837-.32Z"
     id="path2"
     style="fill:#ffffff" />
</svg>
