<?xml version="1.0" encoding="UTF-8" standalone="no"?>
<svg
   width="400"
   height="95"
   fill="none"
   viewBox="0 0 400 95"
   version="1.1"
   id="svg2"
   sodipodi:docname="niggawattlogo.svg"
   inkscape:version="1.3.2 (091e20e, 2023-11-25, custom)"
   xmlns:inkscape="http://www.inkscape.org/namespaces/inkscape"
   xmlns:sodipodi="http://sodipodi.sourceforge.net/DTD/sodipodi-0.dtd"
   xmlns="http://www.w3.org/2000/svg"
   xmlns:svg="http://www.w3.org/2000/svg">
  <defs
     id="defs2">
    <rect
       x="88.97166"
       y="2.6558704"
       width="296.79352"
       height="87.643725"
       id="rect2" />
  </defs>
  <sodipodi:namedview
     id="namedview2"
     pagecolor="#ffffff"
     bordercolor="#000000"
     borderopacity="0.25"
     inkscape:showpageshadow="2"
     inkscape:pageopacity="0.0"
     inkscape:pagecheckerboard="0"
     inkscape:deskcolor="#d1d1d1"
     inkscape:zoom="2.1299436"
     inkscape:cx="220.89787"
     inkscape:cy="53.757292"
     inkscape:window-width="1920"
     inkscape:window-height="1001"
     inkscape:window-x="-9"
     inkscape:window-y="-9"
     inkscape:window-maximized="1"
     inkscape:current-layer="svg2" />
  <path
     fill="#000000"
     d="M 42.176,0.001 C 40.556,-0.043 40.337,1.173 38.72,1.271 37.103,1.367 36.739,0.186 35.136,0.423 33.533,0.661 33.528,1.897 31.953,2.273 30.376,2.65 29.813,1.55 28.276,2.063 26.739,2.575 26.948,3.793 25.462,4.437 23.976,5.081 23.23,4.096 21.805,4.867 20.381,5.639 20.798,6.802 19.446,7.695 18.094,8.588 17.189,7.746 15.92,8.753 c -1.27,1.007 -0.656,2.08 -1.833,3.194 -1.176,1.114 -2.214,0.443 -3.29,1.655 -1.074,1.213 -0.283,2.163 -1.249,3.464 -0.965,1.301 -2.103,0.82 -2.951,2.201 -0.849,1.38 0.095,2.179 -0.63,3.628 -0.724,1.45 -1.93,1.173 -2.525,2.68 -0.596,1.507 0.473,2.13 0.012,3.683 -0.462,1.553 -1.697,1.49 -2.022,3.077 -0.325,1.587 0.835,2.015 0.65,3.625 -0.185,1.61 -1.412,1.762 -1.456,3.382 -0.045,1.62 1.172,1.84 1.27,3.457 0.097,1.617 -1.085,1.98 -0.848,3.584 0.238,1.602 1.474,1.607 1.85,3.183 0.377,1.576 -0.724,2.14 -0.211,3.676 0.512,1.538 1.73,1.328 2.375,2.814 0.644,1.487 -0.342,2.232 0.43,3.657 0.771,1.425 1.935,1.007 2.827,2.359 0.893,1.352 0.052,2.258 1.059,3.527 1.007,1.269 2.08,0.656 3.194,1.832 1.114,1.177 0.443,2.215 1.655,3.29 1.212,1.075 2.163,0.283 3.464,1.249 1.301,0.965 0.82,2.104 2.2,2.952 1.38,0.848 2.18,-0.095 3.629,0.629 1.45,0.725 1.173,1.93 2.68,2.525 1.507,0.596 2.13,-0.472 3.682,-0.011 a 2.73,2.73 0 0 1 1.181,0.702 c 0.56,0.311 1.718,1.086 3.453,1.15 6.295,0.235 12.748,0.09 18.154,0.162 3.405,-0.323 6.99,-0.699 6.21,1.804 -4.432,0.444 -9.187,-0.082 -13.64,0.046 -3.016,0.212 -6.205,-0.36 -9.092,0.667 -3.15,1.393 -2.589,6.255 0.72,6.974 4.828,0.447 9.696,0.171 14.54,0.255 2.059,0.64 7.408,-1.414 7.247,1.729 -7.007,0.169 -14.018,0.198 -21.027,0.29 -1.524,-0.56 -2.952,1.54 -1.405,2.585 3.809,0.219 7.634,0.142 11.449,0.176 3.924,-0.142 7.927,0.318 11.798,-0.36 3.428,-1.155 2.838,-6.518 -0.643,-7.078 -5.318,-0.432 -10.672,-0.114 -16.005,-0.23 -1.598,-0.263 -5.468,-0.025 -5.52,-1.656 -0.053,-1.633 11.432,-0.144 17.144,-0.307 2.515,-0.095 6.039,0.468 7.19,-2.479 1.041,-2.295 -1.1,-5.3 -3.132,-5.334 -2.032,-0.034 -11.744,0.038 -17.615,-0.09 -3.816,-0.266 -4.812,-2.518 -5.031,-3.934 -0.012,-2.973 1.14,-6.56 -1.363,-8.924 -2.747,-1.443 -5.914,0.995 -8.894,-0.072 -3.011,-0.075 -6.323,-2.962 -4.182,-6.069 1.361,-2.069 -4.404,-2.22 -0.559,-5.849 -3.816,-3.856 1.728,-3.311 1.707,-4.878 -1.495,-1.825 -2.643,-4.779 0.4,-5.475 3.226,-1.038 4.483,-4.286 3.943,-7.353 -0.155,-3.035 2.035,-5.443 3.752,-7.746 1.71,-2.003 3.943,-3.69 6.505,-4.48 0.337,0.363 0.594,0.793 1.222,1.01 1.04,0.359 1.395,-0.455 2.411,0.006 1.016,0.46 0.893,1.38 1.877,1.94 0.983,0.558 1.46,-0.16 2.406,0.493 0.944,0.654 0.685,1.523 1.583,2.266 0.899,0.743 1.482,0.142 2.328,0.968 0.846,0.827 0.456,1.618 1.242,2.521 0.786,0.904 1.46,0.438 2.18,1.412 0.721,0.975 0.213,1.664 0.863,2.701 0.65,1.037 1.39,0.722 1.965,1.814 0.574,1.092 -0.035,1.659 0.458,2.798 0.493,1.139 1.281,0.984 1.69,2.16 0.41,1.178 -0.284,1.605 0.039,2.811 0.322,1.206 1.131,1.214 1.364,2.44 0.232,1.227 -0.523,1.502 -0.382,2.739 0.089,0.778 0.662,1.59 -0.152,2.968 -0.813,1.377 -3.152,2.377 -3.403,5.16 -0.795,4.648 0.016,5.441 1.295,7.557 1.269,1.723 2.148,2.955 2.418,4.524 0.64,1.131 -0.398,2.536 1.176,3.18 1.574,0.643 4.223,0.07 6.477,-1.618 1.269,-1.008 0.655,-2.08 1.831,-3.195 1.177,-1.114 2.215,-0.442 3.29,-1.654 1.075,-1.212 0.284,-2.163 1.25,-3.464 0.965,-1.302 2.103,-0.82 2.952,-2.2 0.848,-1.381 -0.096,-2.18 0.629,-3.63 0.724,-1.448 1.93,-1.173 2.525,-2.68 0.595,-1.506 -0.472,-2.128 -0.01,-3.681 0.462,-1.553 1.697,-1.491 2.021,-3.079 0.325,-1.587 -0.835,-2.015 -0.65,-3.624 0.186,-1.61 1.412,-1.763 1.456,-3.382 0.045,-1.62 -1.172,-1.84 -1.269,-3.457 -0.097,-1.617 1.085,-1.98 0.847,-3.583 -0.238,-1.603 -1.474,-1.608 -1.85,-3.184 -0.377,-1.576 0.724,-2.139 0.211,-3.676 -0.512,-1.537 -1.73,-1.327 -2.374,-2.814 -0.645,-1.486 0.341,-2.233 -0.43,-3.657 -0.772,-1.425 -1.936,-1.007 -2.828,-2.359 -0.893,-1.352 -0.051,-2.258 -1.058,-3.527 -1.008,-1.27 -2.08,-0.655 -3.195,-1.832 -1.114,-1.176 -0.443,-2.214 -1.655,-3.29 C 66.705,9.099 65.755,9.889 64.454,8.923 63.152,7.959 63.633,6.82 62.252,5.972 60.872,5.124 60.074,6.068 58.625,5.343 57.175,4.619 57.451,3.413 55.945,2.818 54.438,2.222 53.815,3.29 52.262,2.828 50.709,2.366 50.772,1.131 49.184,0.806 47.597,0.481 47.169,1.641 45.56,1.456 43.95,1.271 43.795,0.046 42.176,0.001 Z"
     id="path1"
     style="fill:#ffffff" />
  <path
     fill="#000000"
     d="m 20.126,51.427 c 0,0 -7.727,-0.882 -10.344,-0.76 -2.617,0.121 -2.613,2.376 -0.11,2.376 1.927,0 10.345,0.285 10.345,0.285 l 2.069,-0.094 z m 6.662,-19.855 c -0.344,0.738 -0.226,1.649 -0.313,2.459 -0.095,2.453 -0.29,6.856 -0.106,7.364 0.185,0.508 1.762,0.656 2.862,0.862 1.1,0.206 2.263,0.503 3.407,0.526 0.865,-0.397 1.326,-1.454 1.556,-2.212 0.23,-0.758 0.981,-5.593 2.177,-5.382 1.195,0.21 5.272,1.378 7.438,1.575 1.466,0.04 1.35,-0.835 2.188,-0.565 0.839,0.27 2.038,0.801 3.423,0.826 0.793,0.014 2.983,0.23 3.63,0.26 0.647,0.031 0.554,0.05 0.808,-0.262 C 50.318,35.973 39.83,33.05 36.29,32 33.123,31.855 29.956,31.694 26.788,31.572 Z m 3.352,1.176 c 1.179,0.055 4.373,0.232 4.586,0.454 0.25,0.147 -0.28,2.301 -0.594,3.422 -0.365,1.566 -0.736,3.204 -1.66,4.543 -0.899,0.553 -2.154,0.19 -3.033,0.086 -1.39,-0.147 -1.488,-0.871 -1.683,-2.16 -0.195,-1.29 -0.217,-1.393 -0.326,-2.376 -0.109,-0.982 -0.116,-1.28 0.715,-1.307 0.832,-0.028 0.346,-0.737 0.174,-1.44 -0.172,-0.704 -1.52,-0.417 -1.002,-1.167 0.69,-0.162 1.644,-0.11 2.823,-0.055 z m 0.502,0.495 c -1.07,-0.005 -0.4,1.278 -0.114,1.98 0.286,0.702 1.042,2.324 0.381,2.717 -0.66,0.394 -1.422,-1.485 -1.888,-1.211 -0.466,0.274 0.093,0.97 0.325,1.378 0.28,0.492 0.366,0.864 0.493,1.316 0.205,0.678 0.098,1.234 1.164,1.3 1.066,0.068 1.375,-0.802 1.526,-1.672 0.381,-1.629 0.665,-2.816 0.878,-3.94 0.214,-1.125 0.335,-1.386 0.072,-1.547 -0.263,-0.161 -1.881,-0.342 -2.837,-0.32 z"
     id="path2"
     style="fill:#ffffff" />
  <path
     fill="#000000"
     d="m 119.00263,66.454076 h -4.09281 V 28.455909 h 4.09281 l 12.68401,29.231949 V 28.455909 h 4.0928 V 66.45576 h -4.0928 L 119.00263,37.225493 Z m 32.53884,0 h -4.09112 V 28.455909 h 4.09112 V 66.45576 Z M 170.98064,50.67017 v -3.50716 h 10.63928 v 11.982238 c 0,2.611859 -0.79769,4.639751 -2.39644,6.080313 -1.59876,1.403537 -3.99521,2.105306 -7.19103,2.105306 -3.19583,0 -5.61079,-0.701769 -7.24824,-2.103624 -1.63746,-1.442244 -2.45535,-3.470136 -2.45535,-6.080312 V 35.763055 c 0,-2.610176 0.79937,-4.617874 2.39644,-6.019728 1.59875,-1.442245 3.9952,-2.164208 7.19102,-2.164208 3.19584,0 5.61248,0.721963 7.24825,2.164208 1.63746,1.401854 2.45703,3.409552 2.45703,6.019728 v 3.214336 h -4.0928 v -3.214336 c 0,-3.116728 -1.85119,-4.675093 -5.55357,-4.675093 -3.70238,0 -5.55357,1.558365 -5.55357,4.675093 v 23.383876 c 0,3.116728 1.85119,4.676775 5.55357,4.676775 3.70238,0 5.55357,-1.560047 5.55357,-4.678458 V 50.67017 Z m 29.22858,0 v -3.50716 h 10.63928 v 11.982238 c 0,2.611859 -0.79769,4.639751 -2.39645,6.080313 -1.59875,1.403537 -3.99351,2.105306 -7.18934,2.105306 -3.1975,0 -5.61246,-0.701769 -7.24992,-2.103624 -1.63747,-1.442244 -2.45535,-3.470136 -2.45535,-6.080312 V 35.763055 c 0,-2.610176 0.79938,-4.617874 2.39813,-6.019728 1.59707,-1.442245 3.99352,-2.164208 7.18934,-2.164208 3.19751,0 5.61246,0.721963 7.24825,2.164208 1.63746,1.401854 2.45703,3.409552 2.45703,6.019728 v 3.214336 h -4.09282 v -3.214336 c 0,-3.116728 -1.85118,-4.675093 -5.55355,-4.675093 -3.70238,0 -5.55357,1.558365 -5.55357,4.675093 v 23.383876 c 0,3.116728 1.85119,4.676775 5.55357,4.676775 3.70237,0 5.55355,-1.560047 5.55355,-4.678458 V 50.67017 h -6.54647 z m 39.57672,15.783906 h -1.75526 l -1.51965,-3.741083 a 9.9375161,9.9375161 0 0 1 -3.21434,3.389357 8.1788871,8.1788871 0 0 1 -4.38564,1.228517 c -5.61246,0 -8.41785,-2.727979 -8.41785,-8.183936 v -5.84639 c 0,-5.455957 2.80539,-8.183936 8.41785,-8.183936 h 6.78041 v -9.587473 c 0,-1.401855 -0.44766,-2.494056 -1.34464,-3.273238 -0.8953,-0.779182 -2.22143,-1.167932 -3.975,-1.167932 -3.46678,0 -5.20353,1.480952 -5.20353,4.442853 v 3.448259 h -4.09113 v -3.214337 c 0,-2.611858 0.75899,-4.619556 2.28033,-6.02141 1.55836,-1.442245 3.89759,-2.164208 7.01433,-2.164208 3.11841,0 5.45595,0.721963 7.016,2.164208 1.59707,1.401854 2.39644,3.409552 2.39644,6.019728 V 66.45576 Z m -4.09448,-17.83031 h -6.78209 c -1.63578,0 -2.765,0.410627 -3.38935,1.228516 -0.62268,0.817888 -0.9357,1.968991 -0.9357,3.449942 v 5.844707 c 0,1.48095 0.31134,2.63037 0.9357,3.449942 0.62267,0.817888 1.75357,1.226833 3.39103,1.226833 1.63579,0 3.15544,-0.622672 4.55898,-1.871383 1.40354,-1.285735 2.14401,-2.552957 2.22143,-3.799985 z m 29.52309,10.523165 V 28.455909 h 4.0928 v 30.691022 c 0,3.116728 1.79061,4.676775 5.37686,4.676775 3.62497,0 5.43577,-1.560047 5.43577,-4.678458 V 28.455909 h 4.0928 v 30.691022 c 0,2.571469 -0.81788,4.577484 -2.45534,6.021411 -1.63578,1.442244 -4.07262,2.162525 -7.30715,2.162525 -3.19414,0 -5.59227,-1.130908 -7.18935,-3.391041 -1.51965,2.260133 -3.91778,3.391041 -7.19102,3.391041 -3.23453,0 -5.67137,-0.720281 -7.30714,-2.162525 -1.63578,-1.442244 -2.45535,-3.449942 -2.45535,-6.021411 V 28.455909 h 4.09112 v 30.691022 c 0,3.116728 1.79398,4.676775 5.37855,4.676775 3.62496,0 5.43745,-1.560047 5.43745,-4.678458 z m 48.21335,7.307145 h -1.75357 l -1.51966,-3.741083 a 9.9190043,9.9190043 0 0 1 -3.21602,3.389357 8.1738385,8.1738385 0 0 1 -4.38395,1.228517 c -5.61079,0 -8.41786,-2.727979 -8.41786,-8.183936 v -5.84639 c 0,-5.455957 2.80707,-8.183936 8.41786,-8.183936 h 6.78208 v -9.587473 c 0,-1.401855 -0.44933,-2.494056 -1.34463,-3.273238 -0.89699,-0.779182 -2.22143,-1.167932 -3.97502,-1.167932 -3.46845,0 -5.20352,1.480952 -5.20352,4.442853 v 3.448259 h -4.09112 v -3.214337 c 0,-2.611858 0.75898,-4.619556 2.27864,-6.02141 1.56005,-1.442245 3.89759,-2.164208 7.016,-2.164208 3.11673,0 5.45596,0.721963 7.01432,2.164208 1.59708,1.401854 2.39645,3.409552 2.39645,6.019728 V 66.45576 Z m -4.09112,-17.83031 h -6.78208 c -1.63578,0 -2.76669,0.410627 -3.38936,1.228516 -0.62435,0.817888 -0.93569,1.968991 -0.93569,3.449942 v 5.844707 c 0,1.48095 0.31134,2.63037 0.93569,3.449942 0.62267,0.817888 1.75358,1.226833 3.38936,1.226833 1.63746,0 3.15711,-0.622672 4.56065,-1.871383 1.40185,-1.285735 2.14233,-2.552957 2.22143,-3.799985 z m 14.32146,-20.167857 h 12.86071 v 3.508844 h -8.76789 v 28.000066 c 0,1.092201 0.27262,2.007698 0.81789,2.748174 0.58396,0.740475 1.38334,1.110713 2.39644,1.110713 1.05181,0 1.85119,-0.351726 2.39645,-1.051811 0.54526,-0.740476 0.81957,-1.676168 0.81957,-2.807076 v -6.95542 h 4.09113 v 6.721497 c 0,2.457032 -0.66307,4.345245 -1.9875,5.671369 -1.28574,1.285734 -3.03932,1.928602 -5.26075,1.928602 -2.22143,0 -4.01371,-0.642868 -5.37854,-1.928602 -1.32444,-1.326124 -1.98751,-3.214337 -1.98751,-5.671369 z m 21.92144,0 h 12.86072 v 3.508844 h -8.76791 v 28.000066 c 0,1.092201 0.27264,2.007698 0.81789,2.748174 0.58397,0.740475 1.38334,1.110713 2.39645,1.110713 1.05181,0 1.85119,-0.351726 2.39644,-1.051811 0.54695,-0.740476 0.81958,-1.676168 0.81958,-2.807076 v -6.95542 h 4.09112 v 6.721497 c 0,2.457032 -0.66138,4.345245 -1.9875,5.671369 -1.28573,1.285734 -3.03931,1.928602 -5.26074,1.928602 -2.22142,0 -4.01371,-0.642868 -5.37855,-1.928602 -1.32443,-1.326124 -1.9875,-3.214337 -1.9875,-5.671369 z"
     id="path1-4"
     style="stroke-width:1;fill:#ffffff" />
</svg>
